# xmcd
#
# Track frame offsets:
#	150
#	16172
#	27269
#	42534
#	55854
#	71001
#	86731
#	103566
#	125099
#	143621
#	159357
#	177784
#	198073
#	217226
#	232159
#	245057
#	260859
#	275054
#
# Disc length: 3861 seconds
#
# Revision: 0
# Processed by: cddbd v1.5.2PL0 Copyright (c) Steve Scherf et al.
# Submitted via: audiograbber 1.83.01
#
DISCID=100f1312
DTITLE=div - bluesnews Collection Vol. 14
DYEAR=2019
DGENRE=Blues
TTITLE0=Tobacco Road Blues Band - Lean Your Head On Me
TTITLE1=Ticket West feat. Harp Mitch - Back Door Santa
TTITLE2=Schimmer and Case - Me, Myself And I
TTITLE3=Alexander und Maximilian Blume - It's Your Thing
TTITLE4=Sugar Queen - Give Sugar
TTITLE5=GProject Blues Band - When I'm Gone
TTITLE6=Hanno Bruhn Gang - Immer nur noch mehr
TTITLE7=Miss Kaytie - Room Full Of Mirrors
TTITLE8=Daria Kriegs Band - Wölfe am Tisch
TTITLE9=Schorsch Hampel - Mississippi sehng
TTITLE10=Travellin' Blue Kings - I Don't Wanna Stop
TTITLE11=Purple Lights - That's My Way To Stand The Blues
TTITLE12=Chicken Head - Crossroads
TTITLE13=Schwarzbrenner - Oh Gott was rauhe Not
TTITLE14=Jennifer Kowa - True Love
TTITLE15=DRYLand Zone - Bad Guy Necessity
TTITLE16=The Second Cousins - Mean And Evil
TTITLE17=Dorbn City Blues Connection - Untouched
EXTD=
EXTT0=
EXTT1=
EXTT2=
EXTT3=
EXTT4=
EXTT5=
EXTT6=
EXTT7=
EXTT8=
EXTT9=
EXTT10=
EXTT11=
EXTT12=
EXTT13=
EXTT14=
EXTT15=
EXTT16=
EXTT17=
PLAYORDER=
